<?xml version="1.0" encoding="UTF-8" standalone="no"?>
<!-- Created with Inkscape (http://www.inkscape.org/) -->

<svg
   viewBox="0 0 170 60"
   version="1.1"
   id="svg5"
   inkscape:version="1.1.1 (c3084ef, 2021-09-22)"
   sodipodi:docname="mylogo.svg"
   xmlns:inkscape="http://www.inkscape.org/namespaces/inkscape"
   xmlns:sodipodi="http://sodipodi.sourceforge.net/DTD/sodipodi-0.dtd"
   xmlns="http://www.w3.org/2000/svg"
   xmlns:svg="http://www.w3.org/2000/svg">
  <sodipodi:namedview
     id="namedview7"
     pagecolor="#ffffff"
     bordercolor="#666666"
     borderopacity="1.0"
     inkscape:pageshadow="2"
     inkscape:pageopacity="0.0"
     inkscape:pagecheckerboard="0"
     inkscape:document-units="mm"
     showgrid="false"
     inkscape:zoom="0.57549102"
     inkscape:cx="304.95697"
     inkscape:cy="582.1116"
     inkscape:window-width="1293"
     inkscape:window-height="1324"
     inkscape:window-x="2291"
     inkscape:window-y="25"
     inkscape:window-maximized="0"
     inkscape:current-layer="layer1" />
  <defs
     id="defs2" />
  <g transform="translate(-20, -110)"
     inkscape:label="Layer 1"
     inkscape:groupmode="layer"
     id="layer1">
    <path fill="#ffffff"
       d="m 30.848854,114.59854 -4.2164,29.0576 q -0.254,1.9304 -2.3876,1.9304 -2.0828,0 -2.0828,-2.286 0,-0.6096 0.254,-2.032 l 4.9276,-29.0576 q 0.6096,-3.4036 3.5052,-3.4036 2.54,0 3.2512,2.3368 l 7.7216,26.4668 h 0.1016 l 7.7216,-26.4668 q 0.7112,-2.3368 3.2512,-2.3368 2.8956,0 3.5052,3.4036 l 4.9276,29.0576 q 0.254,1.4224 0.254,2.032 0,2.286 -2.0828,2.286 -2.1336,0 -2.3876,-1.9304 l -4.2164,-29.0576 h -0.1016 l -8.636,29.1592 q -0.5588,1.8288 -2.286,1.8288 -1.7272,0 -2.286,-1.8288 l -8.636,-29.1592 z"
       id="path96"
       style="font-size:50.8px;line-height:1.25;font-family:'VAG Rounded Light';-inkscape-font-specification:'VAG Rounded Light, Normal';stroke-width:0.264583" />
    <path fill="#ffffff"
       d="m 72.14846,144.31654 -7.62,-21.9964 q -0.6096,-1.8288 -0.6096,-2.4892 0,-0.8128 0.6096,-1.3208 0.6096,-0.5588 1.4224,-0.5588 1.7272,0 2.2352,1.6764 l 6.1976,18.542 h 0.1016 l 6.095999,-18.542 q 0.508,-1.6764 2.1336,-1.6764 0.8128,0 1.4224,0.5588 0.6096,0.508 0.6096,1.3208 0,0.6604 -0.6096,2.4892 l -11.277599,32.258 q -0.6096,1.6764 -2.1844,1.6764 -0.8128,0 -1.4224,-0.5588 -0.6096,-0.508 -0.6096,-1.3208 0,-0.7112 0.6604,-2.4892 z"
       id="path98"
       style="font-size:50.8px;line-height:1.25;font-family:'VAG Rounded Light';-inkscape-font-specification:'VAG Rounded Light, Normal';stroke-width:0.264583" />
    <path fill="#ffffff"
       d="m 92.994715,111.19494 v 29.9212 h 9.550395 q 2.1844,0 2.1844,2.0828 0,2.0828 -2.1844,2.0828 H 90.911915 q -2.3876,0 -2.3876,-2.4384 v -31.6484 q 0,-1.1176 0.6096,-1.7272 0.6096,-0.6604 1.6256,-0.6604 1.016,0 1.6256,0.6604 0.6096,0.6096 0.6096,1.7272 z"
       style="font-size:50.8px;line-height:1.25;font-family:'VAG Rounded Light';-inkscape-font-specification:'VAG Rounded Light, Normal';stroke-width:0.264583"
       id="path100" />
    <path fill="#ffffff"
       d="m 110.30084,141.52254 q -3.2004,-4.064 -3.2004,-9.7536 0,-5.6896 3.2004,-9.7536 3.2004,-4.064 8.6868,-4.064 5.4864,0 8.6868,4.064 3.2004,4.064 3.2004,9.7536 0,5.6896 -3.2004,9.7536 -3.2004,4.064 -8.6868,4.064 -5.4864,0 -8.6868,-4.064 z m 3.0988,-16.7132 q -1.8288,2.9972 -1.8288,6.9596 0,3.9624 1.8288,6.9596 1.8288,2.9972 5.588,2.9972 3.7592,0 5.588,-2.9972 1.8288,-2.9972 1.8288,-6.9596 0,-3.9624 -1.8288,-6.9596 -1.8288,-2.9972 -5.588,-2.9972 -3.7592,0 -5.588,2.9972 z"
       style="font-size:50.8px;line-height:1.25;font-family:'VAG Rounded Light';-inkscape-font-specification:'VAG Rounded Light, Normal';stroke-width:0.264583"
       id="path102" />
    <path fill="#ffffff"
       d="m 157.7028,120.13574 v 23.2156 q 0,5.9944 -3.3528,9.4488 -3.302,3.4544 -8.8392,3.4544 -3.5052,0 -6.9596,-1.6256 -3.4036,-1.6256 -3.4036,-3.302 0,-0.8128 0.4572,-1.4732 0.4572,-0.6096 1.4224,-0.6096 0.762,0 1.9812,0.762 1.2192,0.8128 2.9972,1.5748 1.778,0.8128 3.8608,0.8128 3.9116,0 5.6388,-2.4892 1.7272,-2.4384 1.7272,-5.842 v -2.3368 h -0.1016 q -2.286,3.8608 -6.858,3.8608 -5.4864,0 -8.6868,-4.064 -3.2004,-4.064 -3.2004,-9.7536 0,-5.6896 3.2004,-9.7536 3.2004,-4.064 8.6868,-4.064 2.032,0 3.9624,1.0668 1.9304,1.016 2.8956,2.3368 h 0.1016 v -1.2192 q 0,-1.1176 0.6604,-1.6256 0.7112,-0.5588 1.7272,-0.5588 0.762,0 1.4224,0.5588 0.6604,0.5588 0.6604,1.6256 z m -17.018,4.6736 q -1.8288,2.9972 -1.8288,6.9596 0,3.9624 1.8288,6.9596 1.8288,2.9972 5.588,2.9972 3.7592,0 5.588,-2.9972 1.8288,-2.9972 1.8288,-6.9596 0,-3.9624 -1.8288,-6.9596 -1.8288,-2.9972 -5.588,-2.9972 -3.7592,0 -5.588,2.9972 z"
       style="font-size:50.8px;line-height:1.25;font-family:'VAG Rounded Light';-inkscape-font-specification:'VAG Rounded Light, Normal';stroke-width:0.264583"
       id="path104" />
    <path fill="#ffffff"
       d="m 165.86334,141.52254 q -3.2004,-4.064 -3.2004,-9.7536 0,-5.6896 3.2004,-9.7536 3.2004,-4.064 8.6868,-4.064 5.4864,0 8.6868,4.064 3.2004,4.064 3.2004,9.7536 0,5.6896 -3.2004,9.7536 -3.2004,4.064 -8.6868,4.064 -5.4864,0 -8.6868,-4.064 z m 3.0988,-16.7132 q -1.8288,2.9972 -1.8288,6.9596 0,3.9624 1.8288,6.9596 1.8288,2.9972 5.588,2.9972 3.7592,0 5.588,-2.9972 1.8288,-2.9972 1.8288,-6.9596 0,-3.9624 -1.8288,-6.9596 -1.8288,-2.9972 -5.588,-2.9972 -3.7592,0 -5.588,2.9972 z"
       style="font-size:50.8px;line-height:1.25;font-family:'VAG Rounded Light';-inkscape-font-specification:'VAG Rounded Light, Normal';stroke-width:0.264583"
       id="path106" />
  </g>
</svg>
