
<svg xmlns="http://www.w3.org/2000/svg" xmlns:xlink="http://www.w3.org/1999/xlink" version="1.1" viewBox="0 0 297 60.0">
<defs>
<linearGradient id="linearGradient1092">
<stop style="stop-color:#e0041d;stop-opacity:1;" offset="0"/>
<stop style="stop-color:#8b141a;stop-opacity:1;" offset="1"/>
</linearGradient>
<linearGradient id="linearGradient1094" xlink:href="#linearGradient1092"
x1="189.51462"
y1="78.072464"
x2="188.88499"
y2="131.27507"
gradientUnits="userSpaceOnUse" />
</defs>
<g transform="translate(0,-65)">
<path fill="#ffffff" d="m 9.964494,102.4431 13.08,13.2 q 1.32,1.32 2.04,1.86 0.78,0.54 1.8,0.54 0.66,0 1.2,-0.48 0.54,-0.54 0.54,-1.32 0,-0.72 -0.42,-1.32 -0.36,-0.6 -1.2,-1.44 l -14.34,-13.980002 12.96,-10.02 q 0.66,-0.48 0.96,-0.96 0.3,-0.48 0.3,-1.26 0,-0.78 -0.54,-1.32 -0.54,-0.54 -1.26,-0.54 -0.48,0 -0.96,0.3 -0.42,0.24 -1.26,0.9 l -12.9,10.44 v -22.92 q 0,-2.76 -2.16,-2.76 -2.16,0 -2.16,2.76 V 115.2831 q 0,2.76 2.16,2.76 2.16,0 2.16,-2.76 z"/>
<path fill="#ffffff" d="m 53.404394,90.143098 h -0.18 q -1.86,-2.4 -4.02,-3.54 -2.1,-1.2 -4.92,-1.2 -3.48,0 -6.06,1.44 -2.52,1.38 -4.2,3.72 -1.68,2.28 -2.52,5.22 -0.84,2.94 -0.84,5.940002 0,3.36 0.84,6.36 0.9,2.94 2.58,5.16 1.74,2.22 4.32,3.54 2.58,1.26 6,1.26 2.82,0 5.1,-1.2 2.28,-1.2 3.72,-3.54 h 0.18 v 1.98 q 0,2.76 2.16,2.76 2.16,0 2.16,-2.76 V 88.163098 q 0,-2.76 -2.16,-2.76 -2.16,0 -2.16,2.76 z m -18.06,11.580002 q 0,-2.160002 0.48,-4.440002 0.54,-2.28 1.62,-4.08 1.08,-1.86 2.76,-3 1.74,-1.2 4.2,-1.2 2.52,0 4.2,1.2 1.74,1.14 2.82,3 1.08,1.8 1.5,4.08 0.48,2.28 0.48,4.440002 0,2.16 -0.48,4.44 -0.42,2.28 -1.5,4.14 -1.08,1.8 -2.82,3 -1.68,1.14 -4.2,1.14 -2.52,0 -4.26,-1.14 -1.74,-1.2 -2.82,-3 -1.02,-1.86 -1.5,-4.14 -0.48,-2.28 -0.48,-4.44 z"/>
<path fill="#ffffff" d="m 74.34438,85.403098 q -1.8,0 -3.6,0.6 -1.8,0.54 -3.24,1.62 -1.44,1.08 -2.34,2.64 -0.84,1.56 -0.84,3.54 0,3 1.56,4.62 1.56,1.56 4.02,2.580002 l 7.44,3.06 q 0.9,0.36 1.68,0.78 0.78,0.42 1.38,1.02 0.66,0.54 1.02,1.32 0.36,0.72 0.36,1.8 0,2.28 -1.92,3.9 -1.86,1.56 -4.98,1.56 -2.1,0 -3.6,-0.72 -1.5,-0.72 -2.58,-1.56 -1.08,-0.84 -1.92,-1.56 -0.78,-0.72 -1.56,-0.72 -0.78,0 -1.44,0.84 -0.6,0.78 -0.6,1.26 0,0.78 0.78,1.8 0.84,1.02 2.34,1.98 1.56,0.96 3.66,1.62 2.16,0.66 4.74,0.66 2.52,0 4.68,-0.66 2.16,-0.66 3.72,-1.86 1.56,-1.2 2.46,-2.88 0.9,-1.74 0.9,-3.84 0,-1.92 -0.66,-3.24 -0.6,-1.38 -1.74,-2.4 -1.08,-1.08 -2.52,-1.8 -1.44,-0.78 -3.06,-1.440002 l -6.54,-2.64 q -1.62,-0.66 -2.28,-1.68 -0.66,-1.02 -0.66,-2.1 0,-1.14 0.54,-1.98 0.54,-0.84 1.44,-1.38 0.9,-0.6 1.98,-0.84 1.14,-0.3 2.28,-0.3 1.62,0 2.88,0.54 1.26,0.54 2.22,1.2 0.96,0.6 1.74,1.14 0.78,0.54 1.38,0.54 1.38,0 1.74,-0.66 0.42,-0.72 0.42,-1.44 0.06,-0.84 -0.84,-1.68 -0.9,-0.9 -2.46,-1.62 -1.5,-0.72 -3.6,-1.14 -2.04,-0.48 -4.38,-0.48 z"/>
<path fill="#ffffff" d="m 113.40428,90.143098 h -0.18 q -1.86,-2.4 -4.02,-3.54 -2.1,-1.2 -4.92,-1.2 -3.48,0 -6.06,1.44 -2.52,1.38 -4.2,3.72 -1.68,2.28 -2.52,5.22 -0.84,2.94 -0.84,5.940002 0,3.36 0.84,6.36 0.9,2.94 2.58,5.16 1.74,2.22 4.32,3.54 2.58,1.26 6,1.26 2.82,0 5.1,-1.2 2.28,-1.2 3.72,-3.54 h 0.18 v 1.98 q 0,2.76 2.16,2.76 2.16,0 2.16,-2.76 V 88.163098 q 0,-2.76 -2.16,-2.76 -2.16,0 -2.16,2.76 z m -18.06,11.580002 q 0,-2.160002 0.48,-4.440002 0.54,-2.28 1.62,-4.08 1.08,-1.86 2.76,-3 1.74,-1.2 4.2,-1.2 2.52,0 4.2,1.2 1.74,1.14 2.82,3 1.08,1.8 1.5,4.08 0.48,2.28 0.48,4.440002 0,2.16 -0.48,4.44 -0.42,2.28 -1.5,4.14 -1.08,1.8 -2.82,3 -1.68,1.14 -4.2,1.14 -2.52,0 -4.26,-1.14 -1.74,-1.2 -2.82,-3 -1.02,-1.86 -1.5,-4.14 -0.48,-2.28 -0.48,-4.44 z"/>
<path fill="#ffffff" d="m 129.96427,99.743098 q 0,-2.64 0.78,-4.38 0.78,-1.8 1.86,-2.88 1.08,-1.14 2.28,-1.68 1.26,-0.54 2.16,-0.72 1.56,-0.36 2.22,-0.9 0.72,-0.54 0.72,-1.44 0,-0.9 -0.66,-1.62 -0.66,-0.72 -2.22,-0.72 -2.04,0 -3.96,1.56 -1.86,1.5 -3.06,4.2 h -0.12 v -3 q 0,-2.76 -2.16,-2.76 -2.16,0 -2.16,2.76 V 115.2831 q 0,2.76 2.16,2.76 2.16,0 2.16,-2.76 z"/>
<path fill="url(#linearGradient1094)" d="m 165.66418,90.143098 h -0.18 q -1.86,-2.4 -4.02,-3.54 -2.1,-1.2 -4.92,-1.2 -3.48,0 -6.06,1.44 -2.52,1.38 -4.2,3.72 -1.68,2.28 -2.52,5.22 -0.84,2.94 -0.84,5.940002 0,3.36 0.84,6.36 0.9,2.94 2.58,5.16 1.74,2.22 4.32,3.54 2.58,1.26 6,1.26 2.82,0 5.1,-1.2 2.28,-1.2 3.72,-3.54 h 0.18 v 1.98 q 0,2.76 2.16,2.76 2.16,0 2.16,-2.76 V 74.123098 q 0,-2.76 -2.16,-2.76 -2.16,0 -2.16,2.76 z m -18.06,11.580002 q 0,-2.160002 0.48,-4.440002 0.54,-2.28 1.62,-4.08 1.08,-1.86 2.76,-3 1.74,-1.2 4.2,-1.2 2.52,0 4.2,1.2 1.74,1.14 2.82,3 1.08,1.8 1.5,4.08 0.48,2.28 0.48,4.440002 0,2.16 -0.48,4.44 -0.42,2.28 -1.5,4.14 -1.08,1.8 -2.82,3 -1.68,1.14 -4.2,1.14 -2.52,0 -4.26,-1.14 -1.74,-1.2 -2.82,-3 -1.02,-1.86 -1.5,-4.14 -0.48,-2.28 -0.48,-4.44 z"/>
<path fill="url(#linearGradient1094)" d="m 180.96417,101.7231 q 0,-2.160002 0.48,-4.440002 0.48,-2.28 1.5,-4.08 1.08,-1.86 2.82,-3 1.74,-1.2 4.26,-1.2 2.52,0 4.26,1.2 1.74,1.14 2.76,3 1.08,1.8 1.56,4.08 0.48,2.28 0.48,4.440002 0,2.16 -0.48,4.44 -0.48,2.28 -1.56,4.14 -1.02,1.8 -2.76,3 -1.74,1.14 -4.26,1.14 -2.52,0 -4.26,-1.14 -1.74,-1.2 -2.82,-3 -1.02,-1.86 -1.5,-4.14 -0.48,-2.28 -0.48,-4.44 z m 22.8,0 q 0,-3.000002 -0.84,-5.940002 -0.78,-2.94 -2.52,-5.22 -1.68,-2.34 -4.26,-3.72 -2.58,-1.44 -6.12,-1.44 -3.48,0 -6.12,1.44 -2.58,1.38 -4.26,3.72 -1.68,2.28 -2.52,5.22 -0.84,2.94 -0.84,5.940002 0,3.36 0.84,6.36 0.9,2.94 2.58,5.16 1.74,2.22 4.32,3.54 2.58,1.26 6,1.26 3.42,0 6,-1.26 2.58,-1.32 4.26,-3.54 1.74,-2.22 2.58,-5.16 0.9,-3 0.9,-6.36 z"/>
<path fill="url(#linearGradient1094)" d="m 222.18413,114.0831 q -2.1,0 -3.78,-1.02 -1.68,-1.08 -2.88,-2.82 -1.14,-1.74 -1.8,-4.02 -0.6,-2.34 -0.6,-4.86 0,-1.920002 0.54,-4.020002 0.6,-2.1 1.68,-3.84 1.14,-1.8 2.82,-2.94 1.74,-1.2 4.02,-1.2 1.44,0 2.4,0.3 1.02,0.24 1.68,0.6 0.66,0.36 1.08,0.66 0.48,0.24 0.9,0.24 1.26,0 1.8,-0.66 0.6,-0.72 0.6,-1.74 0,-0.66 -0.66,-1.26 -0.66,-0.66 -1.8,-1.08 -1.08,-0.48 -2.52,-0.72 -1.38,-0.3 -2.94,-0.3 -3.42,0 -6.06,1.44 -2.64,1.38 -4.5,3.72 -1.8,2.28 -2.76,5.22 -0.96,2.94 -0.96,5.940002 0,3 0.84,5.94 0.9,2.94 2.64,5.28 1.74,2.28 4.32,3.72 2.58,1.38 5.94,1.38 1.62,0 3.06,-0.24 1.5,-0.24 2.64,-0.72 1.2,-0.48 1.86,-1.2 0.72,-0.78 0.72,-1.74 0,-0.78 -0.6,-1.26 -0.6,-0.48 -1.2,-0.48 -0.42,0 -0.96,0.3 -0.54,0.24 -1.26,0.54 -0.72,0.3 -1.8,0.6 -1.02,0.24 -2.46,0.24 z"/>
<path fill="url(#linearGradient1094)" d="m 259.50403,103.6431 q 0.96,0 1.5,-0.24 0.6,-0.24 0.9,-0.6 0.36,-0.42 0.42,-0.9 0.12,-0.48 0.12,-0.9 0,-3.000002 -0.9,-5.820002 -0.84,-2.82 -2.58,-4.98 -1.68,-2.16 -4.26,-3.48 -2.52,-1.32 -5.88,-1.32 -3.36,0 -5.94,1.44 -2.58,1.38 -4.32,3.72 -1.74,2.28 -2.64,5.22 -0.84,2.94 -0.84,5.940002 0,3 0.84,5.94 0.84,2.94 2.58,5.28 1.74,2.28 4.44,3.72 2.76,1.38 6.6,1.38 2.82,0 5.1,-0.72 2.28,-0.72 3.9,-1.74 1.62,-1.08 2.52,-2.16 0.9,-1.08 0.9,-1.8 0,-1.26 -0.6,-1.68 -0.54,-0.42 -1.44,-0.42 -0.78,0 -1.56,0.78 -0.78,0.78 -1.98,1.68 -1.14,0.9 -2.88,1.68 -1.68,0.78 -4.26,0.78 -2.04,0 -3.78,-0.9 -1.74,-0.9 -3,-2.4 -1.2,-1.5 -1.92,-3.42 -0.72,-1.98 -0.78,-4.08 z m -19.74,-3.6 q 0.06,-1.980002 0.66,-3.960002 0.6,-1.98 1.74,-3.54 1.14,-1.62 2.76,-2.58 1.68,-0.96 3.84,-0.96 2.16,0 3.84,0.96 1.68,0.96 2.76,2.58 1.14,1.56 1.74,3.54 0.6,1.98 0.66,3.960002 z"/>
<path fill="url(#linearGradient1094)" d="m 270.90396,101.7231 q 0,-2.160002 0.48,-4.440002 0.48,-2.28 1.5,-4.08 1.08,-1.86 2.82,-3 1.74,-1.2 4.26,-1.2 2.52,0 4.26,1.2 1.74,1.14 2.76,3 1.08,1.8 1.56,4.08 0.48,2.28 0.48,4.440002 0,2.16 -0.48,4.44 -0.48,2.28 -1.56,4.14 -1.02,1.8 -2.76,3 -1.74,1.14 -4.26,1.14 -2.52,0 -4.26,-1.14 -1.74,-1.2 -2.82,-3 -1.02,-1.86 -1.5,-4.14 -0.48,-2.28 -0.48,-4.44 z m 22.8,0 q 0,-3.000002 -0.84,-5.940002 -0.78,-2.94 -2.52,-5.22 -1.68,-2.34 -4.26,-3.72 -2.58,-1.44 -6.12,-1.44 -3.48,0 -6.12,1.44 -2.58,1.38 -4.26,3.72 -1.68,2.28 -2.52,5.22 -0.84,2.94 -0.84,5.940002 0,3.36 0.84,6.36 0.9,2.94 2.58,5.16 1.74,2.22 4.32,3.54 2.58,1.26 6,1.26 3.42,0 6,-1.26 2.58,-1.32 4.26,-3.54 1.74,-2.22 2.58,-5.16 0.9,-3 0.9,-6.36 z"/>
</g>
</svg>
